Coordinates
version=1
nRows=16
nColumns=42
inDegrees=yes

Units are S.I. units (second, meters, Newtons, ...)
If the header above contains a line with 'inDegrees', this indicates whether rotational values are in degrees (yes) or radians (no).

endheader
time	pelvis_tilt	pelvis_list	pelvis_rotation	pelvis_tx	pelvis_ty	pelvis_tz	hip_flexion_r	hip_adduction_r	hip_rotation_r	knee_angle_r	knee_adduction_r	knee_angle_r_beta	ankle_angle_r	subtalar_angle_r	mtp_angle_r	hip_flexion_l	hip_adduction_l	hip_rotation_l	knee_angle_l	knee_adduction_l	knee_angle_l_beta	ankle_angle_l	subtalar_angle_l	mtp_angle_l	lumbar_extension	lumbar_bending	lumbar_rotation	arm_flex_r	arm_add_r	arm_rot_r	elbow_flex_r	pro_sup_r	wrist_flex_r	wrist_dev_r	arm_flex_l	arm_add_l	arm_rot_l	elbow_flex_l	pro_sup_l	wrist_flex_l	wrist_dev_l
      0.14000000	      6.59576023	     -1.32961650	     -1.70814407	     -1.78599561	      0.87081722	      0.18146087	    -13.02755918	     -2.79325399	    -16.67615007	     32.00040394	      8.87973743	      0.55851241	     29.23499888	     29.17622637	     -9.37603056	     30.90495087	     -1.40178107	    -27.84623572	     36.15073489	     -8.01291429	      0.63094935	     11.73014021	     21.93023954	     -9.37603056	    -20.83410033	      3.51166750	      0.02433960	     13.58208894	    -10.80226009	     -0.71695714	     43.08632551	     90.00000001	      0.00000000	      0.00000000	     -7.97615400	     -3.22146541	    -29.37732891	     29.53127955	     90.00000001	      0.00000000	      0.00000000
      0.15000000	      6.64243497	     -1.05220165	     -1.58001644	     -1.77610871	      0.87047780	      0.18094659	    -13.67158540	     -2.96040570	    -16.56179743	     32.10063641	      8.61250684	      0.56026180	     29.15334907	     29.07600991	     -9.36961107	     30.70298629	     -0.79535800	    -27.61063634	     36.85921555	     -8.44214337	      0.64331467	     11.54655953	     21.91494043	     -9.36961107	    -20.63853340	      3.15194261	     -0.07055376	     13.03858772	    -10.68068601	     -0.71126290	     42.96792511	     90.00000001	      0.00000000	      0.00000000	     -8.04088451	     -3.43284187	    -29.43897126	     29.49328336	     90.00000001	      0.00000000	      0.00000000
      0.16000000	      6.72269196	     -0.74351711	     -1.36154004	     -1.76610661	      0.87040808	      0.18021739	    -14.36353552	     -3.20403175	    -16.64164427	     32.23354949	      8.42294487	      0.56258157	     28.46405115	     28.25363539	     -9.28807988	     30.50725425	     -0.11912700	    -27.09209439	     37.67741121	     -8.76054350	      0.65759488	     10.82769632	     20.66496549	     -9.28807988	    -20.44633361	      2.82034535	     -0.27836881	     12.30235314	    -10.53438186	     -0.99359604	     43.43217343	     90.00000001	      0.00000000	      0.00000000	     -7.92798653	     -3.63194234	    -29.76245253	     29.25222651	     90.00000001	      0.00000000	      0.00000000
      0.17000000	      6.79991435	     -0.48080565	     -1.24454986	     -1.75599231	      0.87057433	      0.17946715	    -14.91534252	     -3.31181818	    -16.37131241	     32.47263784	      8.04863224	      0.56675445	     28.32944337	     28.18547483	     -9.28507670	     30.22450699	      0.47357046	    -26.78369578	     38.30954798	     -9.16817240	      0.66862775	     10.74631840	     20.67315872	     -9.28507670	    -20.22984241	      2.54954847	     -0.40430840	     11.69561317	    -10.47686016	     -0.99952387	     43.21900957	     90.00000001	      0.00000000	      0.00000000	     -8.03290955	     -3.70072461	    -29.79905156	     29.20674710	     90.00000001	      0.00000000	      0.00000000
      0.18000000	      6.90605603	     -0.10503440	     -0.93948447	     -1.74590212	      0.87082300	      0.17860819	    -15.45950226	     -3.68347680	    -16.90891559	     33.00975922	      7.73362778	      0.57612898	     26.89065487	     27.02967013	     -9.25178021	     30.00968153	      1.28246982	    -25.91060208	     39.20109179	     -9.35898764	      0.68418812	     10.49340557	     19.48455312	     -9.25178021	    -20.07367510	      2.11457913	     -0.65305959	     11.00145451	    -10.29037538	     -1.17436141	     43.23126564	     90.00000001	      0.00000000	      0.00000000	     -7.95802335	     -4.03065928	    -29.99991302	     29.20878671	     90.00000001	      0.00000000	      0.00000000
      0.19000000	      6.97148818	      0.18432584	     -0.72055999	     -1.73588362	      0.87135357	      0.17774312	    -15.84589543	     -3.90666708	    -16.72607558	     33.56248561	      7.55324761	      0.58577588	     25.78821275	     25.93963420	     -9.21673784	     29.67183598	      1.94772773	    -24.86738908	     39.88374393	     -9.29739306	      0.69610265	     10.48375992	     18.19224938	     -9.21673784	    -19.86517464	      1.78248472	     -0.80124454	     10.29617872	    -10.17949640	     -1.40544403	     43.12478502	     90.00000001	      0.00000000	      0.00000000	     -7.90498411	     -4.21654248	    -30.20246774	     29.26251916	     90.00000001	      0.00000000	      0.00000000
      0.20000000	      7.08773026	      0.49038985	     -0.51622895	     -1.72579406	      0.87213945	      0.17675595	    -16.20481066	     -4.24198663	    -16.70298546	     34.28700983	      7.40009982	      0.59842121	     24.64083929	     24.92440909	     -9.19137559	     29.15839916	      2.51375671	    -24.07917957	     40.46625628	     -9.11855922	      0.70626941	     10.59833193	     17.36200994	     -9.19137559	    -19.70706487	      1.47375692	     -0.91023331	      9.58181987	    -10.12228316	     -1.59946150	     42.88920453	     90.00000001	      0.00000000	      0.00000000	     -7.86822836	     -4.32091937	    -30.35063982	     29.34980839	     90.00000001	      0.00000000	      0.00000000
      0.21000000	      7.13998372	      0.70004385	     -0.29264677	     -1.71598241	      0.87314618	      0.17586034	    -16.38267063	     -4.33666803	    -15.96908057	     35.00329391	      7.41257360	      0.61092273	     22.89535574	     22.36955438	     -9.09728440	     28.58785547	      3.00130205	    -22.79780894	     40.92011319	     -8.61396609	      0.71419071	     10.59986776	     15.28691224	     -9.09728440	    -19.52980108	      1.25467475	     -1.05014042	      8.93236043	     -9.90596150	     -2.21498151	     42.56766569	     90.00000001	      0.00000000	      0.00000000	     -7.77347341	     -4.43813016	    -30.78932490	     29.58522072	     90.00000001	      0.00000000	      0.00000000
      0.22000000	      7.27766820	      1.02095992	     -0.13587868	     -1.70605686	      0.87431885	      0.17490367	    -16.46038311	     -4.81243684	    -16.09048739	     36.20267572	      7.19461270	      0.63185589	     21.29781658	     21.68647261	     -9.07758764	     27.77135194	      3.43287219	    -22.42289025	     41.09157323	     -8.35823222	      0.71718325	     11.07400623	     15.29471946	     -9.07758764	    -19.42289547	      0.91334160	     -1.15059726	      8.24252453	     -9.87405392	     -2.33315071	     42.23198563	     90.00000001	      0.00000000	      0.00000000	     -7.68541230	     -4.57023636	    -30.87161803	     29.73228739	     90.00000001	      0.00000000	      0.00000000
      0.23000000	      7.41170892	      1.22774691	      0.03657879	     -1.69631164	      0.87573485	      0.17403638	    -16.46104808	     -5.08176472	    -15.62255398	     37.34823573	      7.19550066	      0.65184968	     18.72976699	     19.32783528	     -8.99779954	     26.88371124	      3.67881767	    -22.02011196	     41.20359881	     -7.99054355	      0.71913846	     11.64505975	     15.21719273	     -8.99779954	    -19.34484610	      0.68729230	     -1.27392933	      7.67654370	     -9.69295912	     -2.84477450	     41.71791507	     90.00000001	      0.00000000	      0.00000000	     -7.66356471	     -4.65389228	    -31.11984862	     30.14564235	     90.00000001	      0.00000000	      0.00000000
      0.24000000	      7.54274920	      1.48445850	      0.16848748	     -1.68666343	      0.87719965	      0.17318066	    -16.26882013	     -5.56210652	    -15.63693267	     38.83660484	      7.02099036	      0.67782662	     16.14155400	     18.13512955	     -8.95915637	     25.89828037	      3.93489090	    -21.83413733	     41.13920178	     -7.65331241	      0.71801452	     12.31517198	     15.46790247	     -8.95915637	    -19.27935393	      0.40341918	     -1.36221897	      7.05843004	     -9.63046388	     -3.09501757	     41.25443210	     90.00000001	      0.00000000	      0.00000000	     -7.56615541	     -4.77085029	    -31.20223599	     30.45854995	     90.00000001	      0.00000000	      0.00000000
      0.25000000	      7.63025322	      1.77951745	      0.27181611	     -1.67719778	      0.87868251	      0.17232465	    -15.86167517	     -6.16819798	    -15.58302858	     40.54939605	      6.90069989	      0.70772047	     13.57456876	     17.15996035	     -8.93765620	     24.88839049	      4.24272748	    -21.69272457	     40.92052759	     -7.30956523	      0.71419794	     12.98229192	     15.79290586	     -8.93765620	    -19.18878904	      0.07368358	     -1.42314686	      6.41950821	     -9.60772172	     -3.29381869	     40.77041805	     90.00000001	      0.00000000	      0.00000000	     -7.44392471	     -4.87630875	    -31.23829772	     30.79530229	     90.00000001	      0.00000000	      0.00000000
      0.26000000	      7.81383584	      1.90870282	      0.33165462	     -1.66786817	      0.88039054	      0.17171624	    -15.47158367	     -6.52984301	    -15.10734303	     42.19585241	      6.89358922	      0.73645656	      9.95688017	     14.60184415	     -8.88172861	     23.76757278	      4.23284942	    -21.77490690	     40.73871363	     -6.95611318	      0.71102469	     13.72908758	     16.58407624	     -8.88172861	    -19.22102799	     -0.09401978	     -1.41231997	      5.97836351	     -9.51222734	     -3.86026638	     39.95552572	     90.00000001	      0.00000000	      0.00000000	     -7.37523598	     -4.99335395	    -31.27261193	     31.50538691	     90.00000001	      0.00000000	      0.00000000
      0.27000000	      7.85841788	      2.17533689	      0.32243498	     -1.65878789	      0.88179816	      0.17101534	    -14.64727500	     -7.19396182	    -14.83149525	     44.28958414	      6.74334447	      0.77299907	      7.07563689	     13.69293947	     -8.85786734	     22.78268667	      4.53615568	    -21.78485649	     40.40117828	     -6.75266263	      0.70513358	     14.41662294	     17.00060312	     -8.85786734	    -19.13721152	     -0.40225199	     -1.49861543	      5.48189281	     -9.42509296	     -4.09999985	     39.46788455	     90.00000001	      0.00000000	      0.00000000	     -7.30947525	     -5.00873976	    -31.24679711	     31.83748091	     90.00000001	      0.00000000	      0.00000000
      0.28000000	      7.93908391	      2.38535378	      0.28194229	     -1.64990457	      0.88320206	      0.17049202	    -13.70857263	     -7.76298925	    -14.39034619	     46.45712302	      6.55842607	      0.81082976	      4.27280039	     12.82807457	     -8.84121189	     21.74161348	      4.67643057	    -21.89019694	     40.04721134	     -6.43894245	      0.69895569	     15.02775227	     17.45849869	     -8.84121189	    -19.12434831	     -0.66746415	     -1.44216674	      4.98247006	     -9.44890309	     -4.33461473	     38.90865503	     90.00000001	      0.00000000	      0.00000000	     -7.13170960	     -5.07381142	    -31.20582697	     32.27944933	     90.00000001	      0.00000000	      0.00000000
      0.29000000	      7.99707741	      2.55592447	      0.16910362	     -1.64118094	      0.88450439	      0.17006711	    -12.58303862	     -8.25996131	    -13.76972370	     48.69332462	      6.31401559	      0.84985884	      1.62978603	     11.93868407	     -8.82807664	     20.73884069	      4.76063756	    -22.10221966	     39.69963899	     -6.16359963	      0.69288941	     15.61032872	     17.93778695	     -8.82807664	    -19.11989822	     -0.88171923	     -1.42403885	      4.58127521	     -9.47962028	     -4.56579278	     38.35837199	     90.00000001	      0.00000000	      0.00000000	     -6.94909749	     -5.10566511	    -31.14429500	     32.74734364	     90.00000001	      0.00000000	      0.00000000
